<?xml version="1.0"?>
<svg xmlns:rdf="http://www.w3.org/1999/02/22-rdf-syntax-ns#" xmlns="http://www.w3.org/2000/svg" xmlns:cc="http://creativecommons.org/ns#" xmlns:dc="http://purl.org/dc/elements/1.1/" xmlns:svg="http://www.w3.org/2000/svg" id="svg2417" viewBox="0 0 114.94 78.326" version="1.0">
  <g id="layer1" transform="translate(-242.53 -56.056)">
    <g id="g13515" transform="translate(-67.408 30.851)">
      <path id="path5008" d="m194.52 77.284a39.901 37.407 0 1 1 -79.8 0 39.901 37.407 0 1 1 79.8 0z" transform="matrix(.63310 0 0 .56669 249.74 15.234)" stroke="lightgray" stroke-miterlimit=".5" stroke-width="3" fill="lavender"/>
      <path id="path9498" stroke-linejoin="round" d="m110.53 144.97c-9.76 0-18.146 5.06-22.249 12.37-1.638-0.91-3.446-1.46-5.375-1.46-5.833 0-10.687 4.69-12.187 11.06-2.561-1.01-5.539-1.63-8.719-1.63-9.541 0-17.281 5.22-17.281 11.66 0 5.81 6.347 10.58 14.593 11.47-0.369 0.62-0.656 1.25-0.656 1.9 0 6.17 16.882 11.19 37.688 11.19s37.686-5.02 37.686-11.19c0-0.41-0.26-0.78-0.41-1.18 0.92 0.22 1.82 0.46 2.82 0.46 5.56 0.01 10.09-3.78 10.09-8.43 0-4.66-4.53-8.44-10.09-8.44-0.68 0-1.26 0.24-1.91 0.34 0.56-1.86 0.94-3.76 0.94-5.78 0-12.32-11.16-22.34-24.94-22.34z" transform="translate(275.27 -101.08)" stroke="" stroke-linecap="round" stroke-miterlimit=".5" stroke-width="6.154" fill="darkgray"/>
    </g>
  </g>
</svg>
