<?xml version="1.0"?>
<svg xmlns:rdf="http://www.w3.org/1999/02/22-rdf-syntax-ns#" xmlns="http://www.w3.org/2000/svg" xmlns:cc="http://creativecommons.org/ns#" xmlns:dc="http://purl.org/dc/elements/1.1/" xmlns:svg="http://www.w3.org/2000/svg" id="svg2447" viewBox="0 0 116.51 65.064" version="1.0">
  <g id="layer1" transform="translate(-33.174 -25.545)">
    <g id="g13520" transform="translate(-410.44 -6.9786)">
      <path id="path5024" d="m194.52 77.284a39.901 37.407 0 1 1 -79.8 0 39.901 37.407 0 1 1 79.8 0z" transform="matrix(.45842 0 0 .41032 407.33 25.303)" stroke="lightgrey" stroke-miterlimit=".5" stroke-width="5" fill="lavender"/>
      <path id="path5030" stroke-linejoin="round" d="m512.49 36.237c-9.77 0-18.13 5.09-22.23 12.401-1.64-0.915-3.47-1.475-5.4-1.475-5.83 0-10.68 4.692-12.18 11.062-2.56-1.012-5.52-1.639-8.7-1.639-9.54 0-17.29 5.227-17.29 11.663 0 5.81 6.35 10.589 14.59 11.472-0.37 0.627-0.66 1.254-0.66 1.912 0 6.162 16.89 11.171 37.7 11.171 20.8 0 37.69-5.009 37.69-11.171 0-0.415-0.27-0.799-0.42-1.202 0.91 0.227 1.83 0.464 2.83 0.464 5.56 0 10.07-3.784 10.07-8.439 0-4.656-4.51-8.413-10.07-8.413-0.68 0-1.29 0.219-1.93 0.328 0.56-1.862 0.95-3.771 0.95-5.791 0-12.324-11.17-22.343-24.95-22.343z" stroke="darkgrey" stroke-linecap="round" stroke-miterlimit=".5" stroke-width="6.154" fill="darkgrey"/>
      <path id="path5044" stroke-linejoin="round" d="m535.68 60.932c-5.8 0-10.76 3.021-13.2 7.361-0.97-0.543-2.05-0.875-3.2-0.875-3.46 0-6.34 2.785-7.23 6.566-1.52-0.601-3.28-0.973-5.17-0.973-5.66 0-10.26 3.103-10.26 6.923 0 3.449 3.77 6.285 8.66 6.81-0.21 0.372-0.39 0.744-0.39 1.135 0 3.657 10.03 6.631 22.38 6.631s22.37-2.974 22.37-6.631c0-0.246-0.16-0.474-0.25-0.714 0.54 0.135 1.09 0.276 1.68 0.276 3.3 0 5.98-2.246 5.98-5.01 0-2.763-2.68-4.994-5.98-4.994-0.4 0-0.76 0.131-1.14 0.195 0.33-1.105 0.56-2.238 0.56-3.437 0-7.316-6.63-13.263-14.81-13.263z" stroke="grey" stroke-linecap="round" stroke-miterlimit=".5" stroke-width="6.154" fill="grey"/>
    </g>
  </g>
</svg>
