<?xml version="1.0" encoding="UTF-8" standalone="no"?>
<!-- Created with Inkscape (http://www.inkscape.org/) -->
<svg
    xmlns:inkscape="http://www.inkscape.org/namespaces/inkscape"
    xmlns:rdf="http://www.w3.org/1999/02/22-rdf-syntax-ns#"
    xmlns="http://www.w3.org/2000/svg"
    xmlns:cc="http://creativecommons.org/ns#"
    xmlns:dc="http://purl.org/dc/elements/1.1/"
    xmlns:sodipodi="http://sodipodi.sourceforge.net/DTD/sodipodi-0.dtd"
    xmlns:svg="http://www.w3.org/2000/svg"
    xmlns:ns1="http://sozi.baierouge.fr"
    xmlns:xlink="http://www.w3.org/1999/xlink"
    id="svg2"
    sodipodi:docname="Anonymous_simple_weather_symbols_heavy_rain.svg"
    inkscape:version="0.46dev+devel"
    viewBox="0 0 107.95 87.723"
    sodipodi:version="0.32"
    version="1.0"
    inkscape:output_extension="org.inkscape.output.svg.inkscape"
    inkscape:label="Pozadí"
    sodipodi:docbase="/Users/johnolsen/Desktop/openclipart-0.20-pre/recovered-zerobyte-files/signs_and_symbols"
  >
  <sodipodi:namedview
      id="base"
      bordercolor="#666666"
      inkscape:pageshadow="2"
      inkscape:guide-bbox="true"
      pagecolor="#ffffff"
      inkscape:zoom="1.4975708"
      inkscape:window-width="1129"
      showgrid="false"
      borderopacity="1.0"
      inkscape:current-layer="layer1"
      inkscape:cx="326.1951"
      inkscape:cy="177.95486"
      showguides="true"
      inkscape:window-y="22"
      inkscape:window-x="22"
      inkscape:window-height="744"
      inkscape:pageopacity="0.0"
      inkscape:document-units="px"
  />
  <g
      id="layer1"
      inkscape:label="Vrstva 1"
      inkscape:groupmode="layer"
      transform="translate(-310.1 -167.39)"
    >
    <g
        id="g13542"
        transform="translate(-2.4761 19.309)"
      >
      <path
          id="path8749"
          style="stroke-linejoin:round;stroke:grey;stroke-linecap:round;stroke-miterlimit:.5;stroke-width:6.154;fill:grey"
          d="m378.31 207.24c15.43-1.4 26.66-5.66 26.66-10.69 0-0.41-0.27-0.8-0.42-1.2 0.91 0.23 1.83 0.46 2.83 0.46 5.57 0 10.07-3.78 10.07-8.44 0-4.65-4.5-8.41-10.07-8.41-0.68 0-1.29 0.22-1.93 0.33 0.56-1.86 0.95-3.77 0.95-5.79 0-12.33-11.17-22.34-24.95-22.34-9.77 0-18.13 5.09-22.23 12.4-1.64-0.92-3.47-1.48-5.4-1.48-5.83 0-10.68 4.69-12.18 11.06-2.56-1.01-5.52-1.64-8.7-1.64-9.54 0-17.29 5.23-17.29 11.67 0 5.81 6.35 10.59 14.6 11.47-0.37 0.63-0.66 1.25-0.66 1.91 0 4.25 8.01 7.94 19.79 9.83"
      />
      <path
          id="path8734"
          sodipodi:nodetypes="cccc"
          style="stroke:darkgrey;stroke-miterlimit:3.2;stroke-width:4;fill:darkgrey"
          d="m338.14 223.91c-8.25 7.27 1.43 13.47 5.12 3.49l2.83-9.26-7.95 5.77z"
      />
      <path
          id="path8736"
          sodipodi:nodetypes="cccc"
          style="stroke:darkgrey;stroke-miterlimit:3.2;stroke-width:4;fill:darkgrey"
          d="m367.18 225.11c-8.25 7.27 1.44 13.47 5.13 3.49l2.83-9.26-7.96 5.77z"
      />
      <path
          id="path8738"
          sodipodi:nodetypes="cccc"
          style="stroke:darkgrey;stroke-miterlimit:3.2;stroke-width:4;fill:darkgrey"
          d="m360.42 209.77c-8.25 7.27 1.44 13.47 5.12 3.49l2.83-9.26-7.95 5.77z"
      />
    </g>
  </g>
</svg>
