<?xml version="1.0" standalone="no"?>
<!DOCTYPE svg PUBLIC "-//W3C//DTD SVG 20010904//EN"
 "http://www.w3.org/TR/2001/REC-SVG-20010904/DTD/svg10.dtd">
<svg version="1.0" xmlns="http://www.w3.org/2000/svg"
 width="1280.000000pt" height="1280.000000pt" viewBox="0 0 1280.000000 1280.000000"
 preserveAspectRatio="xMidYMid meet">
<metadata>
Created by potrace 1.15, written by Peter Selinger 2001-2017
</metadata>
<rect width="100%" height="100%" fill="#232946" />
<g transform="translate(0.000000,1280.000000) scale(0.100000,-0.100000)"
fill="#eebbc3" stroke="none">
<path d="M10561 11619 c-31 -29 -41 -61 -41 -128 l0 -57 -33 4 c-25 3 -41 -3
-64 -22 -55 -46 -65 -90 -68 -286 -3 -200 -14 -251 -72 -327 -20 -26 -30 -43
-22 -38 8 6 3 0 -11 -12 -67 -60 -246 -130 -412 -162 -57 -11 -178 -25 -270
-31 -380 -25 -747 37 -1363 230 -725 227 -1226 353 -1514 380 -167 16 -369 -4
-566 -55 -197 -51 -404 -143 -619 -273 -88 -54 -116 -66 -144 -63 -21 2 -39
-3 -44 -11 -7 -9 -8 -7 -3 7 93 274 123 397 132 546 7 120 -4 167 -44 199 -54
42 -144 14 -158 -50 -4 -18 2 -67 15 -124 12 -51 20 -102 17 -112 -3 -14 -5
-11 -6 8 -1 31 -34 58 -71 58 -73 0 -102 -116 -60 -240 25 -74 44 -100 68 -93
22 6 53 48 63 87 6 21 7 11 3 -29 -7 -74 -61 -248 -75 -239 -20 12 -83 -73
-136 -181 -57 -119 -62 -134 -36 -114 30 22 3 -3 -125 -120 -67 -61 -127 -111
-133 -111 -19 0 -190 -154 -321 -289 -193 -199 -316 -359 -393 -511 -71 -139
-58 -283 29 -324 95 -45 191 -6 326 133 53 54 102 112 110 127 8 16 33 52 56
79 123 148 283 396 469 728 70 125 132 227 137 227 5 0 7 3 5 8 -3 4 5 8 16 9
12 0 54 11 92 23 63 19 87 21 235 17 267 -7 497 -65 1205 -303 801 -270 1168
-358 1606 -384 362 -21 680 23 1074 151 115 37 182 53 237 56 71 5 78 4 101
-19 l25 -25 38 36 c31 28 29 26 -6 -11 -44 -47 -58 -59 -44 -36 4 7 3 8 -5 4
-6 -4 -8 -12 -5 -18 8 -12 -206 -225 -396 -393 -272 -241 -472 -399 -945 -743
-412 -299 -895 -661 -1224 -917 -135 -105 -249 -189 -255 -187 -6 2 -8 0 -4
-3 7 -7 -35 -47 -47 -45 -3 0 -17 -12 -31 -27 -14 -16 -22 -21 -18 -13 3 8 -8
-1 -25 -20 -18 -19 -29 -28 -26 -20 4 8 -8 -1 -25 -20 -17 -19 -29 -28 -25
-20 4 8 -8 -1 -25 -20 -17 -19 -29 -28 -25 -20 3 8 -10 -3 -31 -25 -20 -22
-31 -31 -24 -20 7 11 -5 2 -25 -20 -21 -22 -32 -31 -24 -21 29 41 -567 -461
-896 -754 -382 -340 -782 -732 -1061 -1040 -767 -849 -1262 -1706 -1519 -2630
-92 -330 -21 -440 266 -407 143 17 566 13 724 -6 151 -19 214 -14 284 21 35
17 106 106 96 121 -2 5 21 4 52 -1 30 -5 57 -7 59 -6 1 2 8 53 14 113 65 661
316 1353 768 2115 178 299 602 908 685 984 18 16 25 25 17 21 -8 -3 -1 6 15
22 17 15 24 24 16 18 -8 -5 8 15 37 45 28 30 127 145 220 255 251 297 378 435
772 841 237 243 502 501 820 799 394 368 571 535 720 681 209 205 588 590 565
574 -20 -14 -20 -14 -1 7 10 13 24 20 30 16 6 -3 8 -3 4 2 -5 5 72 90 170 189
324 332 469 496 651 740 425 569 671 1072 671 1373 0 106 -31 142 -121 143
-42 0 -60 -5 -78 -21z m-5274 -471 c-3 -8 -6 -5 -6 6 -1 11 2 17 5 13 3 -3 4
-12 1 -19z"/>
</g>
</svg>
