<?xml version="1.0" standalone="no"?>
<!DOCTYPE svg PUBLIC "-//W3C//DTD SVG 20010904//EN"
 "http://www.w3.org/TR/2001/REC-SVG-20010904/DTD/svg10.dtd">
<svg version="1.0" xmlns="http://www.w3.org/2000/svg"
 width="1280.000000pt" height="1280.000000pt" viewBox="0 0 1280.000000 1280.000000"
 preserveAspectRatio="xMidYMid meet">
<metadata>
Created by potrace 1.15, written by Peter Selinger 2001-2017
</metadata>
<rect width="100%" height="100%" fill="#d1d1e9" />
<g transform="translate(0.000000,1280.000000) scale(0.100000,-0.100000)"
fill="#e45858" stroke="none">
<path d="M10565 11505 c-32 -32 -32 -71 1 -171 14 -44 28 -105 31 -136 16
-162 -77 -349 -230 -463 -136 -103 -244 -139 -417 -138 -197 0 -377 41 -886
202 -812 255 -1169 344 -1389 343 -316 0 -597 -106 -852 -322 -40 -33 -73 -59
-73 -56 0 3 -21 -11 -47 -31 -55 -42 -129 -77 -143 -68 -6 3 -10 1 -10 -6 0
-7 -3 -10 -6 -7 -3 3 2 55 12 114 20 130 23 351 5 413 -7 24 -26 58 -42 74
-26 25 -35 29 -67 24 -23 -4 -46 -17 -61 -33 -21 -25 -22 -34 -17 -88 11 -107
15 -172 10 -154 -6 21 -70 35 -93 21 -8 -5 -24 -22 -35 -37 -20 -26 -21 -39
-18 -235 3 -189 1 -219 -22 -332 -51 -258 -57 -379 -19 -421 18 -20 43 -24 43
-6 0 6 3 9 6 6 3 -3 -16 -67 -41 -143 -187 -553 -556 -1206 -1066 -1886 l-177
-235 -229 -133 c-335 -195 -617 -385 -747 -501 -22 -19 -36 -28 -31 -20 15 25
-94 -69 -187 -161 -101 -99 -138 -165 -138 -245 0 -100 66 -151 179 -140 115
11 274 121 509 350 141 139 327 343 292 321 -18 -11 -9 0 229 273 162 188 208
237 186 202 -4 -6 20 4 52 21 66 35 78 45 46 35 -13 -4 -23 -5 -23 -2 0 8 266
93 393 125 306 79 559 112 852 109 l210 -2 -165 -6 c-120 -5 -187 -13 -244
-29 -144 -38 -119 -60 99 -85 417 -49 677 -121 970 -266 459 -228 742 -584
837 -1052 20 -98 23 -143 23 -338 0 -246 -12 -348 -65 -546 -66 -250 -191
-534 -340 -772 -79 -126 -233 -333 -348 -467 -113 -132 -409 -428 -547 -545
-60 -52 -109 -98 -107 -103 1 -5 -2 -6 -7 -2 -6 3 -28 -13 -51 -36 -22 -23
-40 -37 -40 -33 0 5 -5 1 -10 -8 -13 -21 -237 -181 -385 -275 -605 -384 -1193
-601 -1840 -679 -213 -25 -615 -23 -803 4 -421 62 -727 200 -963 432 -252 248
-359 541 -346 940 10 295 74 531 206 762 34 59 97 151 78 113 -3 -5 47 42 111
105 122 120 243 216 397 315 99 64 320 188 424 237 123 58 246 120 258 130 6
5 11 17 10 27 -1 16 -6 17 -31 10 -16 -5 -31 -7 -34 -5 -9 9 254 81 403 110
216 42 316 50 625 50 168 1 380 -4 473 -11 170 -13 217 -8 217 20 0 72 -263
103 -785 94 -466 -8 -768 -49 -1135 -153 -426 -121 -870 -353 -1155 -604 -22
-19 -33 -26 -25 -15 34 44 -173 -140 -265 -237 -209 -219 -328 -432 -392 -698
-34 -142 -43 -399 -20 -547 73 -459 398 -855 867 -1056 161 -68 325 -97 338
-59 2 7 -16 32 -40 55 -50 49 -174 160 -203 182 -11 8 45 -16 125 -54 313
-150 662 -239 1054 -271 71 -5 255 -11 410 -11 182 -1 260 -4 221 -9 -61 -8
-160 -41 -179 -60 -36 -36 88 -53 374 -53 330 1 573 33 956 128 995 246 2003
808 2670 1487 136 138 336 365 290 328 -10 -8 23 37 73 100 262 327 445 690
521 1035 61 272 66 616 14 875 -115 576 -533 1081 -1152 1393 -404 204 -790
294 -1313 304 -340 7 -571 -18 -874 -93 -120 -30 -377 -114 -476 -155 -40 -16
-76 -29 -80 -29 -5 0 15 33 44 73 425 576 783 1219 1083 1945 87 209 140 316
154 307 4 -2 18 7 30 20 96 102 309 156 536 135 231 -21 466 -79 947 -231 286
-90 366 -113 520 -144 577 -117 1070 -45 1467 213 83 54 265 226 256 241 -3 4
36 43 85 86 206 178 341 380 401 604 28 104 32 330 6 378 -36 65 -99 82 -143
38z m-3918 -3551 c-3 -3 -12 -4 -19 -1 -8 3 -5 6 6 6 11 1 17 -2 13 -5z
m-1587 -238 c0 -2 -7 -7 -16 -10 -8 -3 -12 -2 -9 4 6 10 25 14 25 6z"/>
<path d="M10470 11215 c-18 -22 -16 -89 4 -119 20 -32 30 -32 50 -4 43 61 -9
177 -54 123z"/>
</g>
</svg>
