<?xml version="1.0" standalone="no"?>
<!DOCTYPE svg PUBLIC "-//W3C//DTD SVG 20010904//EN"
 "http://www.w3.org/TR/2001/REC-SVG-20010904/DTD/svg10.dtd">
<svg version="1.0" xmlns="http://www.w3.org/2000/svg"
 width="940.000000pt" height="1280.000000pt" viewBox="0 0 940.000000 1280.000000"
 preserveAspectRatio="xMidYMid meet">
<metadata>
Created by potrace 1.15, written by Peter Selinger 2001-2017
</metadata>
 <rect width="100%" height="100%" fill="#232946" />
<g transform="translate(0.000000,1280.000000) scale(0.100000,-0.100000)"
fill="#fffffe" stroke="none">
<path d="M7034 11713 c-27 -3 -46 -22 -125 -125 -245 -321 -355 -443 -925
-1030 -806 -829 -1252 -1257 -2792 -2681 -163 -151 -181 -171 -169 -186 8 -9
66 -82 129 -162 l116 -146 68 -6 68 -5 221 196 c639 570 1295 1186 1904 1787
194 192 311 300 306 285 -4 -14 -66 -171 -137 -349 -666 -1670 -1372 -3536
-1775 -4696 -357 -1027 -598 -1760 -742 -2250 -62 -214 -211 -748 -211 -758 0
-5 23 -34 51 -66 l50 -58 107 19 c307 53 679 84 887 73 220 -11 444 -47 607
-99 44 -14 49 -14 57 3 9 17 58 193 87 316 8 33 21 83 29 110 8 28 19 79 26
115 36 201 223 1067 244 1130 13 41 78 292 144 556 105 419 172 675 251 949
11 39 49 192 84 340 35 149 141 558 234 910 94 352 198 750 232 885 144 575
399 1546 606 2305 145 530 230 808 586 1919 l150 469 -128 128 c-140 141 -130
136 -240 122z"/>
</g>
</svg>
