<?xml version="1.0" standalone="no"?>
<!DOCTYPE svg PUBLIC "-//W3C//DTD SVG 20010904//EN"
 "http://www.w3.org/TR/2001/REC-SVG-20010904/DTD/svg10.dtd">
<svg version="1.0" xmlns="http://www.w3.org/2000/svg"
 width="1280.000000pt" height="1280.000000pt" viewBox="0 0 1280.000000 1280.000000"
 preserveAspectRatio="xMidYMid meet">
<metadata>
Created by potrace 1.15, written by Peter Selinger 2001-2017
</metadata>
<rect width="100%" height="100%" fill="#fffffe" />
<g transform="translate(0.000000,1280.000000) scale(0.100000,-0.100000)"
fill="#6246ea" stroke="none">
<path d="M10520 11935 c-692 -98 -2104 -701 -3105 -1325 -556 -347 -1055 -693
-1534 -1062 -102 -79 -189 -142 -194 -140 -5 1 -6 -1 -4 -5 2 -5 -9 -19 -26
-33 -17 -14 -27 -18 -23 -10 5 8 -6 -1 -23 -20 -18 -19 -29 -28 -26 -20 4 8
-10 -3 -31 -25 -20 -22 -31 -31 -23 -20 17 24 -87 -61 -322 -262 -1283 -1100
-2152 -2250 -2513 -3323 -280 -831 -273 -1667 19 -2252 208 -417 582 -762 922
-849 90 -22 152 -24 178 -5 25 18 15 41 -55 126 -29 34 -49 61 -44 59 328
-140 563 -188 974 -199 140 -3 244 -7 232 -8 -33 -3 -82 -40 -82 -62 0 -34 60
-45 250 -44 196 1 331 20 573 81 1053 264 2260 1077 3077 2073 25 30 39 51 32
46 -7 -4 23 37 66 91 411 514 653 1049 712 1578 15 133 12 424 -5 545 -53 376
-195 660 -460 925 -227 228 -478 372 -784 450 -762 195 -1592 -3 -2484 -592
-617 -407 -1176 -933 -1676 -1578 -95 -121 -142 -176 -103 -118 12 17 22 36
22 42 0 7 10 30 21 53 41 80 149 361 142 371 -3 5 -2 7 4 4 6 -4 15 5 22 19 6
14 7 23 1 19 -6 -3 -7 1 -4 9 3 9 11 13 17 9 6 -3 7 -1 3 5 -12 19 280 493
507 822 159 231 431 596 476 639 20 19 27 29 16 22 -11 -8 -2 3 20 24 22 20
31 31 20 24 -11 -8 4 10 33 39 29 29 50 58 46 63 -3 5 -1 8 4 7 5 -2 45 40 88
92 356 429 918 1012 1399 1451 370 336 666 584 1064 889 373 285 516 404 506
420 -3 5 0 12 6 16 8 4 9 3 5 -4 -11 -18 10 -14 25 5 10 11 10 14 2 9 -7 -4
-13 -5 -13 -3 0 3 48 36 108 74 492 320 981 538 1424 637 120 27 321 57 367
55 14 -1 0 -5 -33 -10 -61 -9 -131 -50 -123 -72 8 -25 62 -39 170 -44 95 -4
117 -2 146 14 46 24 58 45 45 80 -8 24 -17 29 -54 34 -27 4 11 7 95 8 77 2
160 8 184 14 80 22 104 95 43 135 -34 22 -193 26 -322 7z m-2664 -3736 c127
-12 264 -39 355 -69 76 -25 214 -92 249 -121 l25 -20 -40 19 c-48 24 -196 58
-285 67 -70 7 -120 -5 -120 -28 0 -8 32 -36 72 -63 318 -213 475 -433 533
-743 20 -111 20 -394 -1 -543 -86 -628 -401 -1277 -958 -1977 -132 -167 -338
-401 -474 -542 -64 -67 -118 -125 -120 -129 -6 -15 -377 -365 -488 -461 -60
-51 -108 -97 -106 -102 1 -5 -2 -6 -7 -2 -6 3 -27 -12 -48 -33 -49 -51 -239
-189 -390 -284 -400 -253 -771 -403 -1168 -474 -145 -26 -477 -26 -595 -1
-639 138 -990 761 -889 1582 79 647 408 1296 1022 2015 155 183 597 628 782
790 510 445 977 746 1439 928 274 108 511 166 806 195 81 8 304 6 406 -4z
m-3836 -2283 c0 -2 -8 -10 -17 -17 -16 -13 -17 -12 -4 4 13 16 21 21 21 13z"/>
</g>
</svg>
