<?xml version="1.0" standalone="no"?>
<!DOCTYPE svg PUBLIC "-//W3C//DTD SVG 20010904//EN"
 "http://www.w3.org/TR/2001/REC-SVG-20010904/DTD/svg10.dtd">
<svg version="1.0" xmlns="http://www.w3.org/2000/svg"
 width="1280.000000pt" height="1280.000000pt" viewBox="0 0 1280.000000 1280.000000"
 preserveAspectRatio="xMidYMid meet">
<metadata>
Created by potrace 1.15, written by Peter Selinger 2001-2017
</metadata>
<rect width="100%" height="100%" fill="#004643" />
<g transform="translate(0.000000,1280.000000) scale(0.100000,-0.100000)"
fill="#fffffe" stroke="none">
<path d="M7665 11209 c-357 -29 -732 -103 -1065 -211 -578 -186 -1201 -530
-1630 -898 -47 -41 -76 -63 -65 -49 11 13 -17 -10 -63 -51 -46 -41 -93 -82
-104 -90 -12 -8 -66 -64 -120 -124 -234 -260 -360 -512 -390 -775 -21 -189 21
-378 106 -478 15 -18 36 -33 47 -33 25 0 49 49 49 102 0 73 13 72 52 -5 97
-188 283 -356 491 -444 154 -65 310 -93 514 -93 364 0 672 79 1058 270 424
210 821 512 1187 902 283 302 369 435 293 454 -37 9 -64 -13 -138 -118 -239
-338 -627 -691 -1040 -947 -402 -249 -763 -396 -1095 -446 -192 -29 -494 -16
-675 30 -161 41 -330 156 -407 275 -131 205 -125 541 15 838 75 159 112 210
260 357 368 369 838 683 1550 1037 141 70 252 131 268 149 15 16 33 29 39 29
6 0 9 2 6 5 -3 3 -18 1 -33 -5 -15 -6 -30 -9 -32 -6 -7 6 284 100 402 130 149
37 355 74 519 91 167 17 511 20 654 5 204 -22 407 -75 517 -134 28 -15 41 -24
30 -21 -34 11 -96 17 -192 19 -151 2 -150 -21 2 -139 217 -168 317 -276 389
-421 165 -331 106 -889 -145 -1373 -128 -245 -263 -425 -494 -656 -290 -290
-341 -332 -622 -502 -314 -189 -730 -378 -1105 -502 l-66 -22 -214 25 c-323
39 -519 49 -831 43 -213 -4 -300 -9 -356 -22 -135 -30 -194 -70 -193 -133 0
-16 -12 -41 -29 -60 -64 -73 -20 -163 99 -199 78 -24 480 -24 692 1 299 34
487 91 498 150 5 24 -22 46 -60 47 -54 1 -24 7 189 35 151 19 209 24 230 16
24 -9 25 -11 6 -11 -29 -1 -91 -38 -104 -62 -6 -13 -6 -25 1 -39 16 -30 130
-79 237 -102 206 -44 189 -35 351 -186 341 -318 428 -428 502 -630 59 -160 74
-255 74 -462 0 -200 -14 -321 -60 -509 -137 -557 -511 -1107 -1067 -1571 -42
-36 -77 -68 -77 -72 0 -4 -46 -40 -102 -81 -621 -451 -1270 -712 -2016 -809
-228 -30 -716 -32 -892 -5 -229 36 -453 103 -621 188 -290 145 -542 395 -645
640 -145 344 -112 796 83 1134 80 138 309 345 551 498 97 61 350 193 559 291
90 42 108 57 99 82 -4 11 -14 14 -38 10 -61 -10 86 35 192 59 321 73 608 81
1026 29 149 -19 181 -16 190 23 17 64 -80 85 -484 104 -705 34 -1279 -73
-1762 -327 -132 -70 -361 -222 -465 -310 -44 -37 -73 -59 -65 -49 8 11 -25
-15 -75 -57 -319 -270 -490 -555 -541 -899 -67 -455 116 -869 515 -1170 253
-190 671 -341 671 -242 0 10 -45 61 -100 115 l-100 97 88 -40 c437 -203 912
-307 1482 -327 167 -6 190 -8 125 -13 -123 -9 -239 -46 -229 -73 25 -65 694
-88 1069 -37 814 111 1570 381 2227 798 268 170 468 325 665 517 123 119 307
322 274 302 -8 -5 23 36 67 91 232 286 380 587 444 905 20 99 23 142 23 348 0
205 -3 250 -23 350 -138 685 -586 1124 -1464 1434 l-117 42 57 17 c31 9 113
28 181 42 414 87 864 237 1252 418 253 118 536 299 734 469 119 103 282 276
312 333 9 17 37 55 63 85 118 137 238 345 303 520 126 342 138 772 31 1072
-180 500 -696 859 -1414 983 -240 42 -699 57 -985 34z m-975 -349 c-8 -5 -19
-10 -25 -10 -5 0 -3 5 5 10 8 5 20 10 25 10 6 0 3 -5 -5 -10z m257 -3516 c-3
-3 -12 -4 -19 -1 -8 3 -5 6 6 6 11 1 17 -2 13 -5z m-57 -11 c-14 -3 -29 -9
-35 -13 -5 -5 -23 -5 -40 -2 -30 6 -30 7 10 13 22 3 51 6 65 6 l25 0 -25 -4z
m355 -294 c50 -27 101 -59 115 -70 l25 -20 -31 15 c-17 8 -68 24 -113 36 -145
37 -164 49 -185 112 -5 16 0 16 47 -3 29 -11 93 -43 142 -70z"/>
</g>
</svg>
