<?xml version="1.0" standalone="no"?>
<!DOCTYPE svg PUBLIC "-//W3C//DTD SVG 20010904//EN"
 "http://www.w3.org/TR/2001/REC-SVG-20010904/DTD/svg10.dtd">
<svg version="1.0" xmlns="http://www.w3.org/2000/svg"
 width="869.000000pt" height="1280.000000pt" viewBox="0 0 869.000000 1280.000000"
 preserveAspectRatio="xMidYMid meet">
<metadata>
Created by potrace 1.15, written by Peter Selinger 2001-2017
</metadata>
<rect width="100%" height="100%" fill="#004643" />
<g transform="translate(0.000000,1280.000000) scale(0.100000,-0.100000)"
fill="#f9bc60" stroke="none">
<path d="M4090 12794 c-136 -9 -399 -42 -515 -65 -27 -5 -75 -14 -105 -20 -30
-6 -71 -14 -90 -19 -194 -49 -252 -65 -360 -100 -69 -22 -134 -44 -145 -49
-11 -5 -63 -25 -115 -46 -268 -104 -575 -267 -835 -442 -93 -62 -298 -219
-370 -283 -54 -47 -290 -283 -346 -345 -100 -111 -257 -327 -339 -465 -43 -72
-142 -270 -170 -340 -12 -30 -26 -64 -30 -75 -11 -25 -62 -183 -83 -255 -53
-186 -97 -541 -97 -785 0 -153 21 -366 52 -525 21 -109 82 -335 107 -395 5
-11 26 -63 47 -115 44 -111 138 -298 196 -390 50 -79 140 -213 147 -220 4 -3
19 -23 36 -45 210 -284 588 -636 951 -885 126 -86 382 -253 404 -263 34 -15
204 -124 207 -133 2 -8 -30 -24 -177 -87 -25 -11 -61 -26 -80 -34 -85 -37
-117 -52 -326 -154 -121 -59 -243 -121 -270 -137 -28 -16 -70 -41 -95 -54
-438 -249 -850 -582 -1093 -883 -31 -38 -64 -79 -73 -89 -8 -11 -49 -68 -90
-128 -154 -224 -294 -545 -353 -808 -70 -313 -75 -368 -75 -760 0 -296 3 -374
18 -470 31 -194 81 -412 125 -546 67 -203 189 -464 300 -640 55 -89 169 -254
182 -264 3 -3 24 -27 45 -55 110 -138 321 -348 476 -473 63 -51 122 -99 131
-107 45 -37 306 -207 391 -254 20 -12 52 -29 70 -39 51 -29 187 -98 240 -121
111 -49 137 -60 237 -98 222 -85 428 -146 600 -178 19 -4 53 -11 75 -16 229
-52 572 -101 790 -113 44 -3 81 -10 83 -15 5 -15 759 -15 764 0 2 6 62 14 143
20 281 18 524 50 770 101 55 11 111 22 125 25 102 18 357 89 535 148 218 72
558 228 749 342 49 29 90 53 93 53 2 0 45 28 96 62 51 35 99 67 109 73 28 17
182 129 208 151 14 12 77 65 140 119 225 191 458 445 627 685 201 286 330 550
432 885 44 143 87 376 107 568 3 31 10 55 15 52 5 -4 9 101 9 265 0 153 -4
269 -9 266 -11 -7 -21 42 -21 100 0 24 -4 65 -9 91 -5 26 -15 82 -21 123 -19
115 -82 365 -110 435 -4 11 -14 36 -20 55 -42 116 -123 289 -188 400 -48 80
-178 272 -209 305 -10 11 -36 43 -58 70 -59 73 -245 257 -360 356 -234 201
-535 408 -791 544 -48 26 -97 53 -110 62 -12 8 -186 97 -385 197 -200 100
-364 187 -366 193 -2 5 43 33 99 61 363 181 623 345 898 566 156 125 437 405
554 551 82 102 256 354 256 370 0 4 8 19 19 33 19 28 108 201 134 262 8 19 24
55 35 80 32 73 99 278 121 373 27 114 31 138 48 242 25 156 25 639 0 805 -38
252 -80 426 -144 605 -24 68 -29 82 -50 135 -6 14 -38 82 -72 151 -75 154
-189 329 -318 492 -121 153 -372 405 -523 527 -105 84 -388 280 -405 280 -4 0
-19 8 -33 19 -15 10 -81 46 -147 79 -103 51 -155 75 -292 133 -13 5 -33 13
-45 19 -55 23 -308 102 -418 131 -98 26 -171 41 -360 73 -241 42 -326 48 -790
51 -250 1 -480 1 -510 -1z m685 -689 c588 -87 1075 -395 1428 -901 31 -45 57
-85 57 -89 0 -4 8 -19 19 -33 74 -106 204 -419 241 -582 60 -269 80 -464 80
-790 0 -261 -18 -504 -50 -702 -29 -171 -30 -179 -61 -315 -63 -288 -186 -610
-317 -833 -41 -70 -148 -229 -161 -240 -4 -3 -36 -41 -73 -85 -114 -138 -268
-278 -453 -410 -70 -50 -83 -56 -113 -50 -19 3 -42 10 -51 15 -21 11 -61 28
-201 85 -63 26 -133 55 -155 65 -102 45 -213 94 -240 106 -282 123 -853 406
-1070 529 -134 76 -417 259 -490 317 -197 155 -298 242 -378 322 -276 277
-459 585 -532 895 -29 124 -34 146 -47 231 -16 110 -16 507 0 620 30 198 46
274 91 415 42 133 136 341 192 421 16 23 29 46 29 50 0 4 39 59 86 122 79 103
263 301 339 363 82 67 174 139 179 139 2 0 31 17 63 38 144 96 335 182 513
232 25 7 56 16 70 21 47 16 235 51 320 59 132 13 557 4 685 -15z m-1409 -5915
c27 -12 63 -28 79 -35 17 -7 80 -34 140 -60 61 -26 124 -53 140 -60 17 -7 53
-23 80 -35 28 -13 70 -31 95 -42 61 -26 106 -46 165 -73 28 -13 77 -35 110
-50 33 -15 87 -40 120 -55 33 -15 85 -39 115 -53 53 -24 152 -69 275 -127 124
-58 712 -351 753 -375 23 -14 84 -50 134 -80 50 -30 92 -55 94 -55 5 0 172
-110 215 -141 383 -279 604 -493 779 -754 99 -148 194 -351 231 -499 39 -153
47 -205 63 -391 42 -496 -74 -1029 -316 -1453 -43 -75 -128 -201 -153 -228 -5
-6 -26 -31 -45 -57 -60 -79 -282 -290 -394 -374 -199 -149 -452 -281 -662
-348 -27 -8 -62 -20 -79 -25 -364 -117 -1058 -157 -1465 -83 -249 44 -484 117
-687 214 -34 16 -64 29 -67 29 -3 0 -40 20 -82 45 -41 25 -78 45 -81 45 -6 0
-226 150 -233 159 -3 4 -14 14 -26 22 -163 112 -429 408 -565 629 -61 99 -176
328 -208 415 -13 33 -27 69 -31 80 -5 11 -18 49 -30 85 -69 216 -107 400 -139
686 -14 116 -14 614 -1 725 32 269 52 380 102 559 16 58 33 119 38 135 31 114
148 375 242 543 10 17 28 49 39 70 181 320 678 783 1084 1009 68 38 92 38 171
3z"/>
</g>
</svg>
